<svg width="17" height="15" viewBox="0 0 17 15" fill="none" xmlns="http://www.w3.org/2000/svg">
<path d="M17 7.27436C17 7.65405 16.7178 7.96785 16.3518 8.01751L16.25 8.02436L3.066 8.02376L7.82899 12.7673C8.12251 13.0595 8.12353 13.5344 7.83127 13.8279C7.56558 14.0948 7.14897 14.1199 6.85489 13.9027L6.77061 13.8302L0.720613 7.80623C0.681923 7.7677 0.648317 7.72601 0.619795 7.68198C0.611738 7.66873 0.603539 7.65517 0.595764 7.64134C0.588614 7.62948 0.582151 7.61717 0.576056 7.60472C0.567589 7.58661 0.559317 7.5679 0.551805 7.54881C0.545702 7.53409 0.540607 7.51978 0.535959 7.50535C0.530434 7.48745 0.525064 7.46839 0.520447 7.44903C0.517014 7.43551 0.514294 7.4225 0.511923 7.40944C0.508587 7.39001 0.505749 7.3699 0.503723 7.34956C0.501974 7.33404 0.500921 7.31866 0.50034 7.30327C0.500189 7.29394 0.5 7.28417 0.5 7.27436L0.500376 7.2453C0.50095 7.23058 0.501955 7.21588 0.503393 7.2012L0.5 7.27436C0.5 7.22703 0.504383 7.18072 0.512768 7.13583C0.514711 7.1251 0.517029 7.11409 0.519594 7.10313C0.524921 7.08055 0.531078 7.05881 0.538168 7.0375C0.541647 7.02691 0.545702 7.01559 0.550034 7.00436C0.558798 6.9818 0.568325 6.96028 0.578804 6.93933C0.583673 6.92947 0.589125 6.91916 0.594835 6.90895C0.604208 6.89229 0.613863 6.87646 0.624073 6.86103C0.631277 6.85011 0.639254 6.83874 0.647583 6.82755L0.654074 6.81891C0.67428 6.79251 0.696201 6.76749 0.719669 6.74403L0.72057 6.74333L6.77057 0.718329C7.06407 0.426043 7.53894 0.427026 7.83123 0.720525C8.09694 0.987342 8.12029 1.40406 7.90182 1.69721L7.82903 1.78118L3.068 6.52376L16.25 6.52436C16.6642 6.52436 17 6.86014 17 7.27436Z" fill="black"/>
</svg>
