<svg width="32" height="32" viewBox="0 0 32 32" fill="none" xmlns="http://www.w3.org/2000/svg">
<g clip-path="url(#clip0_101_2)">
<path d="M15.7 11.0978C15.6953 11.1363 15.6953 11.1799 15.6953 11.2227C15.6953 11.3891 15.728 11.5491 15.7872 11.6964L15.8401 11.8068L16.0492 12.3493L17.1353 15.1592L18.0825 17.613C18.3528 18.1083 18.7856 18.4972 19.3075 18.7044L19.4697 18.7649C19.476 18.7669 19.4866 18.7669 19.4953 18.7693L22.0917 19.6747V19.6767L23.0843 20.0224L23.1521 20.0456C23.1545 20.0456 23.1585 20.048 23.1608 20.048C23.3565 20.098 23.5482 20.1652 23.7313 20.2472C24.1546 20.4325 24.5385 20.6965 24.8663 21.0186C24.9985 21.1466 25.12 21.2847 25.2325 21.4319C25.3282 21.5555 25.4157 21.6854 25.4944 21.8208C25.8408 22.4041 26.0397 23.0899 26.0397 23.8201C26.0397 23.9505 26.0333 24.0765 26.0203 24.2046C26.016 24.261 26.0093 24.3154 26.001 24.3694V24.3738C25.9923 24.431 25.9817 24.4902 25.971 24.5482C25.96 24.6046 25.9497 24.6607 25.9371 24.7167C25.9351 24.7231 25.9327 24.7299 25.9304 24.7363C25.9185 24.7931 25.9035 24.8491 25.8882 24.9055C25.8743 24.9587 25.857 25.0135 25.8377 25.0652C25.8206 25.1216 25.8007 25.1772 25.7781 25.2316C25.7588 25.2876 25.7359 25.3444 25.7102 25.398C25.64 25.5625 25.5564 25.7205 25.4625 25.8714C25.3414 26.0695 25.2032 26.2563 25.0494 26.4295C26.2677 25.1012 27.0776 23.386 27.2792 21.4879C27.3132 21.1766 27.3305 20.861 27.3305 20.5433C27.3305 20.3404 27.3218 20.1396 27.3088 19.9379C27.1554 17.6618 26.1335 15.6261 24.574 14.1734C24.144 13.7697 23.6741 13.4104 23.1687 13.1055L22.214 12.6106L17.3759 10.0928C17.2272 10.0281 17.0671 9.99492 16.9053 9.99518C16.2788 9.99518 15.7616 10.4797 15.7 11.0978Z" fill="#7B7B7B"/>
<path d="M15.7 11.0978C15.6953 11.1363 15.6953 11.1799 15.6953 11.2227C15.6953 11.3891 15.728 11.5491 15.7872 11.6964L15.8401 11.8068L16.0492 12.3493L17.1353 15.1592L18.0825 17.613C18.3528 18.1083 18.7856 18.4972 19.3075 18.7044L19.4697 18.7649C19.476 18.7669 19.4866 18.7669 19.4953 18.7693L22.0917 19.6747V19.6767L23.0843 20.0224L23.1521 20.0456C23.1545 20.0456 23.1585 20.048 23.1608 20.048C23.3565 20.098 23.5482 20.1652 23.7313 20.2472C24.1546 20.4325 24.5385 20.6965 24.8663 21.0186C24.9985 21.1466 25.12 21.2847 25.2325 21.4319C25.3282 21.5555 25.4157 21.6854 25.4944 21.8208C25.8408 22.4041 26.0397 23.0899 26.0397 23.8201C26.0397 23.9505 26.0333 24.0765 26.0203 24.2046C26.016 24.261 26.0093 24.3154 26.001 24.3694V24.3738C25.9923 24.431 25.9817 24.4902 25.971 24.5482C25.96 24.6046 25.9497 24.6607 25.9371 24.7167C25.9351 24.7231 25.9327 24.7299 25.9304 24.7363C25.9185 24.7931 25.9035 24.8491 25.8882 24.9055C25.8743 24.9587 25.857 25.0135 25.8377 25.0652C25.8206 25.1216 25.8007 25.1772 25.7781 25.2316C25.7588 25.2876 25.7359 25.3444 25.7102 25.398C25.64 25.5625 25.5564 25.7205 25.4625 25.8714C25.3414 26.0695 25.2032 26.2563 25.0494 26.4295C26.2677 25.1012 27.0776 23.386 27.2792 21.4879C27.3132 21.1766 27.3305 20.861 27.3305 20.5433C27.3305 20.3404 27.3218 20.1396 27.3088 19.9379C27.1554 17.6618 26.1335 15.6261 24.574 14.1734C24.144 13.7697 23.6741 13.4104 23.1687 13.1055L22.214 12.6106L17.3759 10.0928C17.2272 10.0281 17.0671 9.99492 16.9053 9.99518C16.2788 9.99518 15.7616 10.4797 15.7 11.0978Z" fill="url(#paint0_linear_101_2)"/>
<path d="M7.08562 0C6.39718 0.0124029 5.84445 0.583739 5.84445 1.2823V23.65C5.84721 23.8061 5.85589 23.9601 5.86694 24.1165C5.8768 24.199 5.88745 24.2846 5.90245 24.3678C6.21688 26.163 7.75709 27.5253 9.61687 27.5253C10.269 27.5253 10.8805 27.3569 11.4155 27.064C11.4187 27.0616 11.4242 27.0584 11.4269 27.0584L11.6195 26.9404L12.3998 26.4747L13.3924 25.8774L13.3948 6.00343C13.3948 4.68271 12.7431 3.51844 11.7453 2.82667C11.7216 2.81227 11.6988 2.79707 11.6779 2.77986L7.81548 0.218452C7.6198 0.0872207 7.38388 0.00480114 7.13099 0H7.08562Z" fill="#7B7B7B"/>
<path d="M7.08562 0C6.39718 0.0124029 5.84445 0.583739 5.84445 1.2823V23.65C5.84721 23.8061 5.85589 23.9601 5.86694 24.1165C5.8768 24.199 5.88745 24.2846 5.90245 24.3678C6.21688 26.163 7.75709 27.5253 9.61687 27.5253C10.269 27.5253 10.8805 27.3569 11.4155 27.064C11.4187 27.0616 11.4242 27.0584 11.4269 27.0584L11.6195 26.9404L12.3998 26.4747L13.3924 25.8774L13.3948 6.00343C13.3948 4.68271 12.7431 3.51844 11.7453 2.82667C11.7216 2.81227 11.6988 2.79707 11.6779 2.77986L7.81548 0.218452C7.6198 0.0872207 7.38388 0.00480114 7.13099 0H7.08562Z" fill="url(#paint1_linear_101_2)"/>
<path d="M22.4006 20.4345L13.5203 25.7726L13.3924 25.8506V25.879L12.3998 26.4751L11.6199 26.942L11.4285 27.0593L11.4155 27.0657C10.8817 27.3597 10.2698 27.5262 9.61805 27.5262C7.75867 27.5262 6.21648 26.1647 5.90323 24.3686C6.05196 25.6825 6.49343 26.9056 7.15939 27.9711C8.53075 30.1664 10.8497 31.6936 13.5325 31.9588H15.1729C16.624 31.8052 17.8356 31.2159 19.1091 30.4201L21.0675 29.2054C21.9496 28.632 24.344 27.2217 25.0494 26.4303C25.2029 26.2571 25.3413 26.0714 25.4625 25.8726C25.5564 25.7213 25.64 25.5633 25.7102 25.3989C25.7339 25.3429 25.7564 25.2884 25.7781 25.2328C25.7986 25.1776 25.8179 25.122 25.8376 25.0656C25.8743 24.9576 25.9035 24.8491 25.9315 24.7375C25.9457 24.6739 25.9588 24.6111 25.9718 24.5487C26.0144 24.313 26.0377 24.071 26.0377 23.8201C26.0377 23.0899 25.8388 22.4042 25.4944 21.8216C25.4155 21.6856 25.3287 21.5556 25.2324 21.4327C25.12 21.2847 24.9985 21.1475 24.8663 21.0194C24.5385 20.6974 24.1558 20.4333 23.7313 20.2476C23.5482 20.1656 23.3573 20.098 23.1608 20.0488C23.1584 20.0488 23.1545 20.0464 23.1521 20.0464L23.0843 20.0232L22.4006 20.4345Z" fill="#7B7B7B"/>
<path d="M22.4006 20.4345L13.5203 25.7726L13.3924 25.8506V25.879L12.3998 26.4751L11.6199 26.942L11.4285 27.0593L11.4155 27.0657C10.8817 27.3597 10.2698 27.5262 9.61805 27.5262C7.75867 27.5262 6.21648 26.1647 5.90323 24.3686C6.05196 25.6825 6.49343 26.9056 7.15939 27.9711C8.53075 30.1664 10.8497 31.6936 13.5325 31.9588H15.1729C16.624 31.8052 17.8356 31.2159 19.1091 30.4201L21.0675 29.2054C21.9496 28.632 24.344 27.2217 25.0494 26.4303C25.2029 26.2571 25.3413 26.0714 25.4625 25.8726C25.5564 25.7213 25.64 25.5633 25.7102 25.3989C25.7339 25.3429 25.7564 25.2884 25.7781 25.2328C25.7986 25.1776 25.8179 25.122 25.8376 25.0656C25.8743 24.9576 25.9035 24.8491 25.9315 24.7375C25.9457 24.6739 25.9588 24.6111 25.9718 24.5487C26.0144 24.313 26.0377 24.071 26.0377 23.8201C26.0377 23.0899 25.8388 22.4042 25.4944 21.8216C25.4155 21.6856 25.3287 21.5556 25.2324 21.4327C25.12 21.2847 24.9985 21.1475 24.8663 21.0194C24.5385 20.6974 24.1558 20.4333 23.7313 20.2476C23.5482 20.1656 23.3573 20.098 23.1608 20.0488C23.1584 20.0488 23.1545 20.0464 23.1521 20.0464L23.0843 20.0232L22.4006 20.4345Z" fill="url(#paint2_linear_101_2)"/>
<path opacity="0.15" d="M26.0377 23.8201C26.0377 24.071 26.0144 24.3134 25.9714 24.5491C25.9588 24.6115 25.9457 24.6739 25.9311 24.7371C25.9035 24.8491 25.8743 24.9576 25.8376 25.066C25.8183 25.122 25.7986 25.178 25.7781 25.2324C25.7568 25.2884 25.7339 25.3429 25.7098 25.3989C25.6395 25.5628 25.5569 25.721 25.4628 25.8722C25.3419 26.0704 25.2035 26.257 25.0494 26.4299C24.344 27.2217 21.9496 28.632 21.0675 29.2054L19.1091 30.4201C17.6734 31.3171 16.317 31.952 14.6064 31.9956C14.5255 31.998 14.4462 32 14.3677 32C14.2572 32 14.1483 31.998 14.0391 31.9936C11.1425 31.8816 8.61636 30.3032 7.15939 27.9711C6.47764 26.8819 6.04816 25.6503 5.90323 24.3686C6.21648 26.1647 7.75867 27.5262 9.61805 27.5262C10.2698 27.5262 10.8817 27.3593 11.4155 27.0657L11.4285 27.0589L11.6199 26.942L12.3998 26.4751L13.3924 25.879V25.8506L13.5203 25.7726L22.4006 20.4341L23.0843 20.0232L23.1521 20.0464C23.1541 20.0464 23.1584 20.0488 23.1608 20.0488C23.3573 20.098 23.5486 20.1656 23.7313 20.2476C24.1558 20.4333 24.5381 20.6974 24.8663 21.0194C24.9984 21.1477 25.1208 21.2858 25.2324 21.4327C25.3287 21.5556 25.4155 21.6856 25.4944 21.8216C25.8388 22.4042 26.0377 23.0899 26.0377 23.8201Z" fill="#7B7B7B"/>
<path opacity="0.15" d="M26.0377 23.8201C26.0377 24.071 26.0144 24.3134 25.9714 24.5491C25.9588 24.6115 25.9457 24.6739 25.9311 24.7371C25.9035 24.8491 25.8743 24.9576 25.8376 25.066C25.8183 25.122 25.7986 25.178 25.7781 25.2324C25.7568 25.2884 25.7339 25.3429 25.7098 25.3989C25.6395 25.5628 25.5569 25.721 25.4628 25.8722C25.3419 26.0704 25.2035 26.257 25.0494 26.4299C24.344 27.2217 21.9496 28.632 21.0675 29.2054L19.1091 30.4201C17.6734 31.3171 16.317 31.952 14.6064 31.9956C14.5255 31.998 14.4462 32 14.3677 32C14.2572 32 14.1483 31.998 14.0391 31.9936C11.1425 31.8816 8.61636 30.3032 7.15939 27.9711C6.47764 26.8819 6.04816 25.6503 5.90323 24.3686C6.21648 26.1647 7.75867 27.5262 9.61805 27.5262C10.2698 27.5262 10.8817 27.3593 11.4155 27.0657L11.4285 27.0589L11.6199 26.942L12.3998 26.4751L13.3924 25.879V25.8506L13.5203 25.7726L22.4006 20.4341L23.0843 20.0232L23.1521 20.0464C23.1541 20.0464 23.1584 20.0488 23.1608 20.0488C23.3573 20.098 23.5486 20.1656 23.7313 20.2476C24.1558 20.4333 24.5381 20.6974 24.8663 21.0194C24.9984 21.1477 25.1208 21.2858 25.2324 21.4327C25.3287 21.5556 25.4155 21.6856 25.4944 21.8216C25.8388 22.4042 26.0377 23.0899 26.0377 23.8201Z" fill="url(#paint3_linear_101_2)"/>
</g>
<defs>
<linearGradient id="paint0_linear_101_2" x1="17.1366" y1="11.3655" x2="27.3805" y2="22.623" gradientUnits="userSpaceOnUse">
<stop stop-color="#37BDFF"/>
<stop offset="0.25" stop-color="#26C6F4"/>
<stop offset="0.5" stop-color="#15D0E9"/>
<stop offset="0.75" stop-color="#3BD6DF"/>
<stop offset="1" stop-color="#62DCD4"/>
</linearGradient>
<linearGradient id="paint1_linear_101_2" x1="10.1376" y1="27.0416" x2="9.80396" y2="1.7433" gradientUnits="userSpaceOnUse">
<stop stop-color="#1B48EF"/>
<stop offset="0.5" stop-color="#2080F1"/>
<stop offset="1" stop-color="#26B8F4"/>
</linearGradient>
<linearGradient id="paint2_linear_101_2" x1="15.9704" y1="25.991" x2="40.3838" y2="25.991" gradientUnits="userSpaceOnUse">
<stop stop-color="#39D2FF"/>
<stop offset="0.5" stop-color="#248FFA"/>
<stop offset="1" stop-color="#104CF5"/>
</linearGradient>
<linearGradient id="paint3_linear_101_2" x1="15.9704" y1="25.991" x2="40.3838" y2="25.991" gradientUnits="userSpaceOnUse">
<stop stop-color="white"/>
<stop offset="1"/>
</linearGradient>
<clipPath id="clip0_101_2">
<rect width="23.8298" height="32" fill="white" transform="translate(4.08511)"/>
</clipPath>
</defs>
</svg>
