<svg width="32" height="32" viewBox="0 0 32 32" fill="none" xmlns="http://www.w3.org/2000/svg">
<path d="M20.4232 4.47289C21.2014 4.78263 21.7516 5.34093 22.2449 6.15942L22.4074 6.4419L23.0104 7.5981L23.0302 7.63038L23.0482 7.65849L23.0994 7.7285C23.3742 8.02783 23.8339 8.20867 24.1374 8.20867C26.917 8.20867 29.1874 10.3917 29.3266 13.1361L29.3334 13.4033V21.13C29.3334 24.6927 26.5198 27.6 22.9941 27.7505L22.7067 27.7567H9.29335C5.72981 27.7567 2.82331 24.9435 2.67281 21.4174L2.66669 21.13V13.4033C2.66669 10.5348 4.99332 8.20867 7.86269 8.20867C8.16505 8.20867 8.62546 8.02757 8.90061 7.7285L8.91009 7.71732L8.92195 7.70178L8.99052 7.5966L9.59178 6.44227C10.1277 5.46824 10.7107 4.81711 11.5759 4.47276C13.1612 3.84239 18.8391 3.84239 20.4232 4.47289ZM12.3152 6.33111C12.02 6.4486 11.7527 6.72055 11.4675 7.19201L11.344 7.40641L10.8309 8.39854L10.7046 8.62711C10.5992 8.80248 10.4937 8.95052 10.3733 9.08172C9.75939 9.749 8.87798 10.1344 8.09444 10.199L7.86269 10.2087L7.64389 10.216C6.05332 10.3236 4.78164 11.595 4.67406 13.1847L4.66669 13.4033V21.13C4.66669 23.5997 6.60234 25.618 9.0395 25.7498L9.29335 25.7567H22.7067C25.1759 25.7567 27.1947 23.8202 27.3265 21.3838L27.3334 21.13V13.4033C27.3334 11.713 26.019 10.3285 24.3561 10.216L24.1374 10.2087L23.9052 10.199C23.1205 10.1344 22.2391 9.74889 21.6259 9.08084C21.5071 8.95137 21.4022 8.80438 21.2974 8.63049L21.2722 8.58739L21.2422 8.53385L21.0874 8.24352L20.6556 7.40677C20.3639 6.8773 20.0969 6.55371 19.8086 6.39108L19.6835 6.33111L19.5244 6.27822C18.1522 5.89038 13.3792 5.90801 12.3152 6.33111ZM15.9996 12.2656C18.8932 12.2656 21.2383 14.6107 21.2383 17.5043C21.2383 20.3979 18.8932 22.7429 15.9996 22.7429C13.106 22.7429 10.761 20.3979 10.761 17.5043C10.761 14.6107 13.106 12.2656 15.9996 12.2656ZM15.9996 14.2656C14.2106 14.2656 12.761 15.7152 12.761 17.5043C12.761 19.2933 14.2106 20.7429 15.9996 20.7429C17.7887 20.7429 19.2383 19.2933 19.2383 17.5043C19.2383 15.7152 17.7887 14.2656 15.9996 14.2656ZM23.3391 11.3336C24.0755 11.3336 24.6724 11.9306 24.6724 12.6669C24.6724 13.3507 24.1577 13.9143 23.4946 13.9913L23.3391 14.0003C22.5907 14.0003 21.9938 13.4033 21.9938 12.6669C21.9938 11.9832 22.5085 11.4196 23.1716 11.3426L23.3391 11.3336Z" fill="url(#paint0_angular_101_16)"/>
<defs>
<radialGradient id="paint0_angular_101_16" cx="0" cy="0" r="1" gradientUnits="userSpaceOnUse" gradientTransform="translate(16 15.8783) rotate(90) scale(11.8783 13.3333)">
<stop stop-color="#1D5AF0"/>
<stop offset="1" stop-color="#29D4E4"/>
</radialGradient>
</defs>
</svg>
