<svg width="24" height="24" viewBox="0 0 24 24" fill="none" xmlns="http://www.w3.org/2000/svg">
<path fill-rule="evenodd" clip-rule="evenodd" d="M16.3024 2C17.9104 2 19.2974 2.537 20.3124 3.554C21.3734 4.616 21.9554 6.161 21.9534 7.905L21.9549 14.9014C21.9566 14.9283 21.9569 14.9553 21.9558 14.9822L21.9534 16.05C21.9534 19.581 19.6804 21.954 16.2974 21.954H7.6514C4.2714 21.954 2.0004 19.581 2.0004 16.05V7.904C2.0004 4.373 4.2714 2 7.6514 2H16.3024ZM16.579 12.8323C15.991 12.8323 15.301 13.8053 14.69 14.6643C13.852 15.8443 12.985 17.0653 11.679 17.0653C10.796 17.0653 9.987 16.7253 9.274 16.4243C8.14 15.9463 7.626 15.7933 7.123 16.2073C6.11609 17.037 5.12118 18.5479 4.66402 19.2914C5.38557 20.0354 6.41056 20.454 7.6514 20.454H16.2974C18.8224 20.454 20.4534 18.726 20.4534 16.05L20.4534 15.251L20.4303 15.2267C19.5549 14.3248 18.0433 12.8323 16.579 12.8323ZM16.3024 3.5H7.6514C5.1304 3.5 3.5004 5.229 3.5004 7.904V16.05C3.5004 16.7186 3.60215 17.328 3.79412 17.8661C4.37281 16.9923 5.24679 15.8094 6.17 15.0493C7.422 14.0193 8.77 14.5853 9.856 15.0423C10.495 15.3113 11.099 15.5653 11.679 15.5653C12.211 15.5653 12.878 14.6253 13.468 13.7963C14.287 12.6403 15.217 11.3323 16.579 11.3323C18.0737 11.3323 19.4275 12.2509 20.4545 13.1624L20.4534 7.904C20.4554 6.541 20.0394 5.403 19.2514 4.614C18.5234 3.885 17.5044 3.5 16.3024 3.5ZM8.8574 6.1895C10.2884 6.1905 11.4524 7.3545 11.4534 8.7845C11.4534 10.2155 10.2894 11.3805 8.8574 11.3805C7.4254 11.3805 6.2614 10.2165 6.2614 8.7855C6.2614 7.3535 7.4254 6.1895 8.8574 6.1895ZM8.8564 7.6895C8.2524 7.6895 7.7614 8.1805 7.7614 8.7855C7.7614 9.3895 8.2524 9.8805 8.8574 9.8805C9.4614 9.8805 9.9534 9.3895 9.9534 8.7865C9.9524 8.1815 9.4604 7.6905 8.8564 7.6895Z" fill="#343434"/>
</svg>
