<svg width="27" height="27" viewBox="0 0 27 27" fill="none" xmlns="http://www.w3.org/2000/svg">
<path fill-rule="evenodd" clip-rule="evenodd" d="M6.33329 15.3334C11.7586 15.3334 12 17.1734 12 21C12 22.9174 12 24.2814 11.1946 25.28C10.268 26.4307 8.58129 26.6667 6.33329 26.6667C4.08529 26.6667 2.39863 26.4307 1.47196 25.28C0.666626 24.2814 0.666626 22.9187 0.666626 21.0334L1.66663 21H0.666626C0.666626 17.1734 0.90796 15.3334 6.33329 15.3334ZM21 15.3334C26.4253 15.3334 26.6666 17.1734 26.6666 21C26.6666 22.9174 26.6666 24.2814 25.8613 25.28C24.9346 26.4307 23.248 26.6667 21 26.6667C18.752 26.6667 17.0653 26.4307 16.1386 25.28C15.3333 24.2814 15.3333 22.9187 15.3333 21.0334L16.3333 21H15.3333C15.3333 17.1734 15.5746 15.3334 21 15.3334ZM6.60817 17.334L6.33329 17.3334C2.85466 17.3334 2.67627 17.583 2.66712 20.5028L2.66768 21.6403C2.674 22.8015 2.71825 23.6404 3.02796 24.0267C3.38129 24.464 4.43063 24.6667 6.33329 24.6667C8.23596 24.6667 9.28529 24.4627 9.63863 24.0254C9.99996 23.576 9.99996 22.5094 9.99996 21.032C9.99996 17.6984 9.99996 17.3496 6.60817 17.334ZM21.2748 17.334L21 17.3334C17.5213 17.3334 17.3429 17.583 17.3338 20.5028L17.3343 21.6403C17.3407 22.8015 17.3849 23.6404 17.6946 24.0267C18.048 24.464 19.0973 24.6667 21 24.6667C22.9026 24.6667 23.952 24.4627 24.3053 24.0254C24.6666 23.576 24.6666 22.5094 24.6666 21.032C24.6666 17.6984 24.6666 17.3496 21.2748 17.334ZM6.33329 0.666687C11.7586 0.666687 12 2.50669 12 6.33335C12 8.25069 12 9.61469 11.1946 10.6134C10.268 11.764 8.58129 12 6.33329 12C4.08529 12 2.39863 11.764 1.47196 10.6134C0.666626 9.61469 0.666626 8.25202 0.666626 6.36669L1.66663 6.33335H0.666626C0.666626 2.50669 0.90796 0.666687 6.33329 0.666687ZM21 0.666687C26.4253 0.666687 26.6666 2.50669 26.6666 6.33335C26.6666 8.25069 26.6666 9.61469 25.8613 10.6134C24.9346 11.764 23.248 12 21 12C18.752 12 17.0653 11.764 16.1386 10.6134C15.3333 9.61469 15.3333 8.25202 15.3333 6.36669L16.3333 6.33335H15.3333C15.3333 2.50669 15.5746 0.666687 21 0.666687ZM6.60817 2.66728L6.33329 2.66669C2.85466 2.66669 2.67627 2.91631 2.66712 5.83609L2.66768 6.97359C2.674 8.13488 2.71825 8.97373 3.02796 9.36002C3.38129 9.79735 4.43063 10 6.33329 10C8.23596 10 9.28529 9.79602 9.63863 9.35869C9.99996 8.90935 9.99996 7.84269 9.99996 6.36535C9.99996 3.03175 9.99996 2.68298 6.60817 2.66728ZM21.2748 2.66728L21 2.66669C17.5213 2.66669 17.3429 2.91631 17.3338 5.83609L17.3343 6.97359C17.3407 8.13488 17.3849 8.97373 17.6946 9.36002C18.048 9.79735 19.0973 10 21 10C22.9026 10 23.952 9.79602 24.3053 9.35869C24.6666 8.90935 24.6666 7.84269 24.6666 6.36535C24.6666 3.03175 24.6666 2.68298 21.2748 2.66728Z" fill="#343434"/>
</svg>
