<svg width="27" height="29" viewBox="0 0 27 29" fill="none" xmlns="http://www.w3.org/2000/svg">
<path fill-rule="evenodd" clip-rule="evenodd" d="M14.3563 0.667358C15.3109 0.667358 16.2389 1.05936 16.9043 1.74069C17.5683 2.42603 17.9349 3.36602 17.9069 4.31936C17.9096 4.53402 17.9803 4.78202 18.1083 4.99936C18.3203 5.35936 18.6549 5.61269 19.0523 5.71669C19.4496 5.81536 19.8656 5.76203 20.2189 5.55269C21.9256 4.57803 24.0976 5.16202 25.0723 6.85536L25.9029 8.29402C25.9243 8.33269 25.9429 8.37002 25.9589 8.40869C26.8416 10.0767 26.2523 12.1767 24.6123 13.1354C24.3736 13.2727 24.1803 13.4647 24.0469 13.6967C23.8403 14.0554 23.7829 14.482 23.8869 14.874C23.9936 15.274 24.2483 15.606 24.6069 15.8114C25.4163 16.2767 26.0203 17.0607 26.2616 17.966C26.5029 18.87 26.3709 19.8514 25.9003 20.6607L25.0149 22.1354C24.0403 23.81 21.8683 24.39 20.1789 23.414C19.9536 23.2847 19.6936 23.214 19.4349 23.2074H19.4269C19.0416 23.2074 18.6456 23.3714 18.3576 23.658C18.0656 23.95 17.9056 24.3394 17.9083 24.7527C17.8989 26.7114 16.3056 28.2954 14.3563 28.2954H12.6856C10.7269 28.2954 9.1336 26.7034 9.1336 24.7447C9.13093 24.5034 9.0616 24.2527 8.93226 24.0354C8.72293 23.67 8.38426 23.4087 7.9936 23.3047C7.6056 23.2007 7.18026 23.258 6.83093 23.4607C5.9936 23.9274 5.00826 24.0407 4.10693 23.7874C3.20693 23.5327 2.4296 22.914 1.9736 22.094L1.14026 20.658C0.165597 18.9674 0.745597 16.8007 2.4336 15.8247C2.91226 15.5487 3.2096 15.034 3.2096 14.482C3.2096 13.93 2.91226 13.414 2.4336 13.138C0.744264 12.1567 0.165597 9.98469 1.13893 8.29402L2.04293 6.81003C3.00426 5.13803 5.1776 4.54869 6.87226 5.52202C7.10293 5.65936 7.3536 5.72869 7.60826 5.73136C8.43893 5.73136 9.1336 5.04602 9.14693 4.20336C9.1416 3.27402 9.50826 2.38203 10.1763 1.70869C10.8469 1.03669 11.7376 0.667358 12.6856 0.667358H14.3563ZM14.3563 2.66736H12.6856C12.2723 2.66736 11.8856 2.82869 11.5936 3.11936C11.3029 3.41136 11.1443 3.79936 11.1469 4.21269C11.1189 6.16202 9.5256 7.73136 7.59626 7.73136C6.9776 7.72469 6.3816 7.55802 5.86426 7.24869C5.1376 6.83536 4.18826 7.09002 3.76293 7.83002L2.86026 9.31402C2.44693 10.0314 2.70026 10.9794 3.43626 11.4074C4.52826 12.0394 5.2096 13.218 5.2096 14.482C5.2096 15.746 4.52826 16.9234 3.4336 17.5567C2.7016 17.9807 2.44826 18.9234 2.87226 19.6567L3.7136 21.1074C3.9216 21.482 4.2616 21.7527 4.65493 21.8634C5.04693 21.9727 5.47893 21.926 5.83893 21.726C6.36826 21.4154 6.98426 21.254 7.60293 21.254C7.90826 21.254 8.2136 21.2927 8.51226 21.3727C9.4136 21.6154 10.1963 22.218 10.6603 23.0274C10.9616 23.5354 11.1283 24.1287 11.1336 24.734C11.1336 25.6007 11.8296 26.2954 12.6856 26.2954H14.3563C15.2083 26.2954 15.9043 25.6047 15.9083 24.7527C15.9029 23.8114 16.2709 22.9167 16.9443 22.2434C17.6083 21.5794 18.5363 21.1807 19.4643 21.2074C20.0723 21.222 20.6576 21.386 21.1736 21.6794C21.9163 22.1047 22.8643 21.8514 23.2936 21.118L24.1789 19.642C24.3763 19.302 24.4336 18.8754 24.3283 18.482C24.2243 18.0887 23.9629 17.7474 23.6109 17.546C22.7869 17.0714 22.1989 16.306 21.9549 15.3887C21.7136 14.4887 21.8456 13.506 22.3163 12.6967C22.6229 12.1634 23.0723 11.714 23.6109 11.4047C24.3336 10.982 24.5869 10.0367 24.1669 9.30069C24.1496 9.27136 24.1336 9.24069 24.1203 9.20869L23.3389 7.85402C22.9136 7.11403 21.9669 6.85936 21.2243 7.28203C20.4216 7.75669 19.4669 7.89269 18.5496 7.65136C17.6336 7.41402 16.8656 6.83402 16.3869 6.01536C16.0803 5.50336 15.9136 4.90736 15.9083 4.30069C15.9203 3.84469 15.7603 3.43536 15.4696 3.13536C15.1803 2.83669 14.7736 2.66736 14.3563 2.66736ZM13.5268 9.96616C16.0161 9.96616 18.0415 11.9928 18.0415 14.4822C18.0415 16.9715 16.0161 18.9955 13.5268 18.9955C11.0375 18.9955 9.01213 16.9715 9.01213 14.4822C9.01213 11.9928 11.0375 9.96616 13.5268 9.96616ZM13.5268 11.9662C12.1401 11.9662 11.0121 13.0955 11.0121 14.4822C11.0121 15.8688 12.1401 16.9955 13.5268 16.9955C14.9135 16.9955 16.0415 15.8688 16.0415 14.4822C16.0415 13.0955 14.9135 11.9662 13.5268 11.9662Z" fill="#343434"/>
</svg>
